<svg width="64" height="64" viewBox="0 0 64 64" fill="none" xmlns="http://www.w3.org/2000/svg" role="img" aria-label="S'investir">
  <rect width="64" height="64" rx="14" fill="#0B0F1A"/>
  <g transform="translate(4.4 8.03) scale(0.8127)">
    <path d="M42.9321 1.49177C42.9115 2.83951 41.6152 3.7963 40.3292 3.40535C37.1811 2.45885 32.6543 1.87243 29.0432 1.75926C27.8292 1.71811 18.8066 2.01646 14.8457 8.85803C10.0206 17.2119 15.3807 23.4877 15.3807 23.4877H29.0741C26.7901 22.1399 25.072 20.8025 23.8169 19.5988C21.3786 17.2634 20.1543 13.858 20.9156 10.5761C21.5638 7.79835 23.7037 4.87654 30.1235 4.59877C42.6543 4.94856 42.9218 19.7017 42.9218 19.7017L44.0638 20.9671L45.1646 19.7017V1.48148L44.0638 0L42.9321 1.49177Z" fill="url(#sg-gold)"/>
    <path d="M17.0679 57.5823C17.0885 56.2346 18.3848 55.2778 19.6708 55.6687C22.8189 56.6152 27.3457 57.2017 30.9568 57.3148C32.1708 57.356 41.1934 57.0576 45.1543 50.2161C49.9794 41.8621 44.6193 35.5864 44.6193 35.5864H30.9259C33.2099 36.9342 34.928 38.2716 36.1831 39.4753C38.6214 41.8107 39.8457 45.2161 39.0844 48.4979C38.4362 51.2757 36.2963 54.1975 29.8765 54.4753C17.3457 54.1255 17.0782 39.3724 17.0782 39.3724L15.9362 38.107L14.8354 39.3724V57.5926L15.9362 59.0741L17.0679 57.5823Z" fill="url(#sg-gold)"/>
    <path d="M47.9321 9.07407C47.9321 7.72634 48.6523 6.52263 49.9486 6.15226C50.0309 6.13169 50.1132 6.11111 50.2058 6.11111C51.5741 5.98766 52.7675 7.04733 52.9835 8.40535C53.035 8.74486 53.0658 9.09465 53.0556 9.44445C53.0247 10.8745 52.5309 13.3025 50.1029 13.6523C47.6749 14.0021 48.4774 12.6029 48.8889 12.5C51.3786 11.9136 51.0391 10.9156 51.0391 10.9156V10.7922C51.0391 10.7922 47.9321 10.8539 47.9321 9.07407Z" fill="url(#sg-gold)"/>
  </g>
  <defs>
    <linearGradient id="sg-gold" x1="101.616" y1="31.7338" x2="28.3697" y2="-27.0399" gradientUnits="userSpaceOnUse">
      <stop stop-color="#D6AA00"/>
      <stop offset="0.2" stop-color="#D9AF0C"/>
      <stop offset="0.39" stop-color="#ECCC4D"/>
      <stop offset="0.49" stop-color="#FFEA8F"/>
      <stop offset="0.55" stop-color="#DBB416"/>
      <stop offset="0.68" stop-color="#D6AB02"/>
      <stop offset="0.82" stop-color="#FFEA8F"/>
      <stop offset="0.87" stop-color="#E7C63E"/>
      <stop offset="1" stop-color="#E2BD2A"/>
    </linearGradient>
  </defs>
</svg>
